<?xml version="1.0" encoding="UTF-8" standalone="no"?>
<!DOCTYPE svg PUBLIC "-//W3C//DTD SVG 1.1//EN" "http://www.w3.org/Graphics/SVG/1.1/DTD/svg11.dtd">
<svg width="100%" height="100%" viewBox="0 0 12500 12500" version="1.1" xmlns="http://www.w3.org/2000/svg" xmlns:xlink="http://www.w3.org/1999/xlink" xml:space="preserve" xmlns:serif="http://www.serif.com/" style="fill-rule:evenodd;clip-rule:evenodd;stroke-linejoin:round;stroke-miterlimit:2;">
    <g transform="matrix(4.16667,0,0,4.16667,0,0)">
        <g transform="matrix(0.439154,0,0,0.439154,-519.574,-522.059)">
            <circle cx="4595.37" cy="4607.85" r="3412.25" style="fill:rgb(195,32,55);"/>
        </g>
        <g transform="matrix(1,0,0,1,0,121.375)">
            <path d="M1709.12,1418.85C1617.2,1418.85 1544.21,1345.81 1544.21,1256.55C1544.21,1167.28 1617.2,1094.25 1709.12,1094.25C1801.04,1094.25 1874.04,1167.28 1874.04,1256.55C1874.04,1345.81 1801.04,1418.85 1709.12,1418.85ZM1422.55,2116.74L1287.38,1794.85C1314.41,1781.32 1341.45,1770.5 1373.89,1770.5C1471.21,1770.5 1549.62,1848.95 1549.62,1946.33C1549.62,2027.48 1495.55,2095.1 1422.55,2116.74ZM1152.2,1175.4C1060.28,1175.4 987.288,1102.36 987.288,1013.1C987.288,923.832 1060.28,850.797 1152.2,850.797C1244.12,850.797 1317.12,923.832 1317.12,1013.1C1317.12,1102.36 1244.12,1175.4 1152.2,1175.4ZM1500.95,688.495C1500.95,688.495 1498.25,688.495 1500.95,688.495L1498.25,688.495C1244.12,688.495 998.102,737.185 765.6,834.566L1500.95,2582.01L2236.31,834.566C2001.1,737.185 1755.08,688.495 1500.95,688.495Z" style="fill:white;fill-rule:nonzero;"/>
        </g>
        <g transform="matrix(1,0,0,1,0,121.375)">
            <path d="M2339.04,585.706C2071.39,474.799 1787.52,417.995 1498.25,417.995C1206.27,417.995 925.107,474.799 660.164,583C616.907,599.231 597.983,647.921 616.907,688.495C635.832,729.071 681.791,748.005 725.047,731.777C968.363,631.69 1227.9,580.294 1498.25,580.294C1768.6,580.294 2028.14,631.69 2276.86,734.479C2287.67,739.891 2298.49,739.891 2309.3,739.891C2341.74,739.891 2371.48,720.957 2385,691.2C2401.22,650.624 2379.59,601.937 2339.04,585.706Z" style="fill:white;fill-rule:nonzero;"/>
        </g>
    </g>
</svg>
